<?xml version="1.0" encoding="utf-8"?>
<!-- Generator: Adobe Illustrator 18.1.1, SVG Export Plug-In . SVG Version: 6.00 Build 0)  -->
<svg version="1.1" id="Layer_1" xmlns="http://www.w3.org/2000/svg" xmlns:xlink="http://www.w3.org/1999/xlink" x="0px" y="0px"
	 viewBox="0 0 75 75" enable-background="new 0 0 75 75" xml:space="preserve">
<path fill="#FFFFFF" d="M49.6,37.5l4.3-7c0.2-0.3,0.2-0.7,0-1L38.4,4.2c-0.4-0.6-1.3-0.6-1.7,0L21.1,29.5c-0.2,0.3-0.2,0.7,0,1
	l4.3,7l-4.3,7c-0.2,0.3-0.2,0.7,0,1l15.5,25.2c0.2,0.3,0.5,0.5,0.9,0.5s0.7-0.2,0.9-0.5l15.5-25.2c0.2-0.3,0.2-0.7,0-1L49.6,37.5z
	 M23.1,30L37.5,6.7L51.9,30l-3.4,5.6L38.4,19.2c-0.4-0.6-1.3-0.6-1.7,0L26.6,35.6L23.1,30z M47.3,37.5l-9.8,15.8l-9.8-15.8l9.8-15.8
	L47.3,37.5z M37.5,68.3L23.1,45l3.4-5.6l10.1,16.4c0.2,0.3,0.5,0.5,0.9,0.5s0.7-0.2,0.9-0.5l10.1-16.4l3.4,5.6L37.5,68.3z"/>
</svg>
