<?xml version="1.0" encoding="utf-8"?>
<!-- Generator: Adobe Illustrator 18.1.1, SVG Export Plug-In . SVG Version: 6.00 Build 0)  -->
<svg version="1.1" xmlns="http://www.w3.org/2000/svg" xmlns:xlink="http://www.w3.org/1999/xlink" x="0px" y="0px"
	 viewBox="0 0 225 110.3" enable-background="new 0 0 225 110.3" xml:space="preserve">
<g id="Layer_3">
</g>
<g id="Layer_2">
</g>
<g id="Layer_1">
	<g>
		<g opacity="0.1">
			<polygon fill="#FFFFFF" points="225,110.3 195.2,110.3 195.2,105.3 220,105.3 220,5 195.2,5 195.2,0 225,0 			"/>
		</g>
		<g opacity="0.1">
			<polygon fill="#FFFFFF" points="29.8,110.3 0,110.3 0,0 29.8,0 29.8,5 5,5 5,105.3 29.8,105.3 			"/>
		</g>
		<g>
			<path fill="#FFFFFF" d="M52.6,29v22.8h8v3.8H48.5V29H52.6z"/>
			<path fill="#FFFFFF" d="M113.9,49.1h-11.7l-3,6.4h-4.4l13.5-28.2l13.1,28.2h-4.5L113.9,49.1z M112.2,45.3l-4.1-9l-4.2,9H112.2z"
				/>
			<path fill="#FFFFFF" d="M158,55.5V29h4.1c1.8,0,3.3,0.1,4.4,0.4c1.1,0.3,2,0.7,2.8,1.4c0.8,0.7,1.4,1.5,1.8,2.5
				c0.5,1,0.7,2,0.7,3.1c0,1.9-0.8,3.5-2.2,4.8c1.5,0.5,2.6,1.3,3.4,2.5c0.9,1.2,1.3,2.6,1.3,4.2c0,2.1-0.8,3.8-2.3,5.3
				c-0.9,0.9-1.9,1.5-3.1,1.8c-1.2,0.3-2.8,0.5-4.7,0.5H158z M162.1,40.4h1.3c1.5,0,2.7-0.3,3.4-1c0.7-0.7,1.1-1.6,1.1-2.9
				c0-1.2-0.4-2.2-1.1-2.8c-0.7-0.6-1.8-1-3.2-1h-1.5V40.4z M162.1,51.8h2.5c1.9,0,3.2-0.4,4.1-1.1c0.9-0.8,1.4-1.7,1.4-2.9
				c0-1.1-0.4-2.1-1.3-2.9c-0.9-0.8-2.4-1.2-4.6-1.2h-2.1V51.8z"/>
		</g>
		<g>
			<path fill="#FFFFFF" d="M45.3,77.9l1.5,3.2l1.6-3.7L50,81l1.5-3.2H53l-3,6l-1.6-3.6l-1.6,3.6l-3-6H45.3z"/>
			<path fill="#FFFFFF" d="M55.8,77.9l1.5,3.2l1.6-3.7l1.6,3.7l1.5-3.2h1.5l-3,6l-1.6-3.6l-1.6,3.6l-3-6H55.8z"/>
			<path fill="#FFFFFF" d="M66.3,77.9l1.5,3.2l1.6-3.7L71,81l1.5-3.2H74l-3,6l-1.6-3.6l-1.6,3.6l-3-6H66.3z"/>
			<path fill="#FFFFFF" d="M75.6,82.8c0-0.2,0.1-0.4,0.2-0.6c0.2-0.2,0.4-0.2,0.6-0.2s0.4,0.1,0.6,0.2c0.2,0.2,0.2,0.3,0.2,0.6
				c0,0.2-0.1,0.4-0.2,0.6c-0.2,0.2-0.3,0.2-0.6,0.2c-0.2,0-0.4-0.1-0.6-0.2S75.6,83,75.6,82.8z"/>
			<path fill="#FFFFFF" d="M80.1,75.6c0-0.2,0.1-0.4,0.3-0.6c0.2-0.2,0.4-0.2,0.6-0.2c0.2,0,0.4,0.1,0.6,0.2
				c0.2,0.2,0.3,0.4,0.3,0.6s-0.1,0.4-0.3,0.6c-0.2,0.2-0.4,0.2-0.6,0.2s-0.4-0.1-0.6-0.2S80.1,75.8,80.1,75.6z M81.6,77.9v8.5h-1.3
				v-8.5H81.6z"/>
			<path fill="#FFFFFF" d="M84.2,80.6c0-0.8,0.3-1.5,0.9-2c0.6-0.6,1.3-0.8,2.2-0.8c0.9,0,1.6,0.3,2.2,0.8c0.6,0.6,0.9,1.3,0.9,2.1
				c0,0.8-0.3,1.5-0.9,2.1c-0.6,0.6-1.3,0.8-2.2,0.8c-0.9,0-1.6-0.3-2.2-0.9C84.5,82.1,84.2,81.4,84.2,80.6z M85.6,80.6
				c0,0.6,0.2,1,0.5,1.3c0.3,0.3,0.7,0.5,1.2,0.5c0.5,0,0.9-0.2,1.2-0.5s0.5-0.8,0.5-1.3s-0.2-1-0.5-1.3c-0.3-0.3-0.7-0.5-1.2-0.5
				c-0.5,0-0.9,0.2-1.2,0.5S85.6,80.1,85.6,80.6z"/>
			<path fill="#FFFFFF" d="M92.9,73.8h1.3v4.5c0.5-0.4,1-0.6,1.6-0.6c0.6,0,1.2,0.2,1.5,0.6c0.3,0.4,0.5,0.9,0.5,1.7v3.4h-1.3v-3.3
				c0-0.4-0.1-0.8-0.2-1s-0.4-0.3-0.8-0.3c-0.5,0-0.8,0.1-1,0.4c-0.2,0.3-0.3,0.8-0.3,1.4v2.7h-1.3V73.8z"/>
			<path fill="#FFFFFF" d="M100.7,77.9h1.3v0.5c0.5-0.4,1-0.7,1.6-0.7c0.7,0,1.2,0.2,1.6,0.6c0.3,0.3,0.5,0.9,0.5,1.7v3.4h-1.3v-3.1
				c0-0.5-0.1-0.9-0.2-1.1c-0.2-0.2-0.4-0.3-0.8-0.3c-0.4,0-0.7,0.1-0.9,0.4c-0.2,0.3-0.3,0.8-0.3,1.4v2.7h-1.3V77.9z"/>
			<path fill="#FFFFFF" d="M111.8,78.8l-1.1,0.6c-0.2-0.3-0.4-0.5-0.6-0.5c-0.1,0-0.2,0-0.3,0.1c-0.1,0.1-0.1,0.2-0.1,0.3
				c0,0.2,0.3,0.4,0.8,0.6c0.7,0.3,1.2,0.6,1.4,0.8c0.2,0.2,0.4,0.6,0.4,1c0,0.5-0.2,1-0.6,1.3c-0.4,0.3-0.9,0.5-1.4,0.5
				c-1,0-1.6-0.5-2-1.4l1.1-0.5c0.2,0.3,0.3,0.4,0.4,0.5c0.2,0.1,0.4,0.2,0.6,0.2c0.4,0,0.7-0.2,0.7-0.6c0-0.2-0.2-0.4-0.5-0.6
				c-0.1-0.1-0.3-0.1-0.4-0.2s-0.3-0.1-0.4-0.2c-0.4-0.2-0.7-0.4-0.8-0.5c-0.2-0.2-0.3-0.5-0.3-0.9c0-0.5,0.2-0.9,0.5-1.2
				c0.3-0.3,0.8-0.5,1.3-0.5C110.9,77.7,111.4,78.1,111.8,78.8z"/>
			<path fill="#FFFFFF" d="M115.9,79.1v4.3h-1.3v-4.3H114v-1.2h0.6v-2h1.3v2h1v1.2H115.9z"/>
			<path fill="#FFFFFF" d="M120.4,73.8v9.6H119v-9.6H120.4z"/>
			<path fill="#FFFFFF" d="M128.4,80.9h-4.1c0,0.5,0.2,0.8,0.5,1.1c0.3,0.3,0.6,0.4,1,0.4c0.3,0,0.6-0.1,0.8-0.2
				c0.2-0.2,0.5-0.4,0.7-0.8l1.1,0.6c-0.2,0.3-0.4,0.5-0.5,0.7c-0.2,0.2-0.4,0.4-0.6,0.5s-0.5,0.2-0.7,0.3c-0.3,0.1-0.5,0.1-0.8,0.1
				c-0.9,0-1.5-0.3-2.1-0.8c-0.5-0.5-0.8-1.2-0.8-2.1c0-0.9,0.2-1.6,0.8-2.1c0.5-0.5,1.2-0.8,2-0.8c0.8,0,1.5,0.3,2,0.8
				c0.5,0.5,0.7,1.2,0.7,2.1L128.4,80.9z M127.1,79.9c-0.2-0.7-0.6-1-1.3-1c-0.2,0-0.3,0-0.5,0.1c-0.1,0-0.3,0.1-0.4,0.2
				s-0.2,0.2-0.3,0.3c-0.1,0.1-0.1,0.3-0.2,0.4H127.1z"/>
			<path fill="#FFFFFF" d="M136.6,83.3c0,0.3,0,0.5,0,0.7s0,0.4-0.1,0.5c-0.1,0.4-0.3,0.8-0.6,1.1c-0.5,0.6-1.2,0.9-2.1,0.9
				c-0.8,0-1.4-0.2-1.9-0.6c-0.5-0.4-0.8-1-0.9-1.7h1.3c0.1,0.3,0.1,0.5,0.3,0.6c0.3,0.3,0.7,0.5,1.2,0.5c1,0,1.4-0.6,1.4-1.7v-0.8
				c-0.5,0.5-1.1,0.8-1.8,0.8c-0.8,0-1.4-0.3-1.9-0.8c-0.5-0.6-0.8-1.2-0.8-2.1c0-0.8,0.2-1.5,0.7-2.1c0.5-0.6,1.2-0.9,2-0.9
				c0.7,0,1.3,0.3,1.8,0.8v-0.6h1.3V83.3z M135.3,80.6c0-0.5-0.1-1-0.4-1.3c-0.3-0.3-0.7-0.5-1.2-0.5c-0.5,0-0.9,0.2-1.2,0.5
				c-0.3,0.3-0.4,0.7-0.4,1.2c0,0.5,0.1,0.9,0.4,1.2c0.3,0.4,0.7,0.5,1.2,0.5s0.9-0.2,1.2-0.5C135.2,81.6,135.3,81.2,135.3,80.6z"/>
			<path fill="#FFFFFF" d="M144.6,80.9h-4.1c0,0.5,0.2,0.8,0.5,1.1c0.3,0.3,0.6,0.4,1,0.4c0.3,0,0.6-0.1,0.8-0.2
				c0.2-0.2,0.5-0.4,0.7-0.8l1.1,0.6c-0.2,0.3-0.4,0.5-0.5,0.7c-0.2,0.2-0.4,0.4-0.6,0.5s-0.5,0.2-0.7,0.3c-0.3,0.1-0.5,0.1-0.8,0.1
				c-0.9,0-1.5-0.3-2.1-0.8c-0.5-0.5-0.8-1.2-0.8-2.1c0-0.9,0.2-1.6,0.8-2.1c0.5-0.5,1.2-0.8,2-0.8c0.8,0,1.5,0.3,2,0.8
				c0.5,0.5,0.7,1.2,0.7,2.1L144.6,80.9z M143.3,79.9c-0.2-0.7-0.6-1-1.3-1c-0.2,0-0.3,0-0.5,0.1c-0.1,0-0.3,0.1-0.4,0.2
				s-0.2,0.2-0.3,0.3c-0.1,0.1-0.1,0.3-0.2,0.4H143.3z"/>
			<path fill="#FFFFFF" d="M147.3,77.9h1.3v0.5c0.2-0.2,0.5-0.4,0.6-0.5c0.2-0.1,0.4-0.1,0.7-0.1c0.3,0,0.7,0.1,1.1,0.3l-0.6,1.2
				c-0.2-0.2-0.5-0.3-0.7-0.3c-0.7,0-1.1,0.5-1.1,1.6v2.9h-1.3V77.9z"/>
			<path fill="#FFFFFF" d="M152.5,82.8c0-0.2,0.1-0.4,0.2-0.6c0.2-0.2,0.4-0.2,0.6-0.2s0.4,0.1,0.6,0.2c0.2,0.2,0.2,0.3,0.2,0.6
				c0,0.2-0.1,0.4-0.2,0.6c-0.2,0.2-0.3,0.2-0.6,0.2c-0.2,0-0.4-0.1-0.6-0.2S152.5,83,152.5,82.8z"/>
			<path fill="#FFFFFF" d="M161.7,78.1v1.7c-0.3-0.4-0.6-0.6-0.8-0.7c-0.2-0.1-0.5-0.2-0.8-0.2c-0.5,0-0.9,0.2-1.2,0.5
				c-0.3,0.3-0.5,0.8-0.5,1.3c0,0.5,0.2,0.9,0.5,1.3c0.3,0.3,0.7,0.5,1.2,0.5c0.3,0,0.6-0.1,0.8-0.2c0.2-0.1,0.5-0.4,0.8-0.8v1.7
				c-0.5,0.3-1.1,0.4-1.6,0.4c-0.9,0-1.6-0.3-2.2-0.8c-0.6-0.6-0.9-1.2-0.9-2.1s0.3-1.5,0.9-2.1s1.3-0.9,2.2-0.9
				C160.7,77.7,161.2,77.8,161.7,78.1z"/>
			<path fill="#FFFFFF" d="M163.9,80.6c0-0.8,0.3-1.5,0.9-2c0.6-0.6,1.3-0.8,2.2-0.8c0.9,0,1.6,0.3,2.2,0.8c0.6,0.6,0.9,1.3,0.9,2.1
				c0,0.8-0.3,1.5-0.9,2.1c-0.6,0.6-1.3,0.8-2.2,0.8c-0.9,0-1.6-0.3-2.2-0.9C164.2,82.1,163.9,81.4,163.9,80.6z M165.2,80.6
				c0,0.6,0.2,1,0.5,1.3c0.3,0.3,0.7,0.5,1.2,0.5c0.5,0,0.9-0.2,1.2-0.5s0.5-0.8,0.5-1.3s-0.2-1-0.5-1.3c-0.3-0.3-0.7-0.5-1.2-0.5
				c-0.5,0-0.9,0.2-1.2,0.5S165.2,80.1,165.2,80.6z"/>
			<path fill="#FFFFFF" d="M172.6,77.9h1.3v0.5c0.3-0.3,0.5-0.4,0.7-0.5c0.2-0.1,0.4-0.1,0.7-0.1c0.6,0,1.2,0.3,1.5,0.8
				c0.4-0.5,1-0.8,1.7-0.8c1.3,0,1.9,0.8,1.9,2.3v3.4h-1.3v-3.1c0-0.5-0.1-0.9-0.2-1.1c-0.1-0.2-0.4-0.3-0.7-0.3
				c-0.4,0-0.6,0.1-0.8,0.4c-0.2,0.3-0.2,0.7-0.2,1.3v2.9h-1.3v-3.1c0-1-0.3-1.5-0.9-1.5c-0.4,0-0.6,0.1-0.8,0.4
				c-0.2,0.3-0.3,0.7-0.3,1.3v2.9h-1.3V77.9z"/>
		</g>
	</g>
</g>
</svg>
